# xmcd
#
# Track frame offsets:
#	150
#	17592
#	40446
#	58787
#	74341
#	93351
#	111471
#	129247
#	152653
#
# Disc length: 2368 seconds
#
# Revision: 0
# Processed by: cddbd v1.5.2PL0 Copyright (c) Steve Scherf et al.
# Submitted via: EZCDAudioConverter 1.3.4.1
#
DISCID=76093e09
DTITLE=Pleasure - Dust Yourself Off
DYEAR=1900
DGENRE=
TTITLE0=Dust Yourself Off
TTITLE1=Reality
TTITLE2=My Love
TTITLE3=Midnight At The Oasis
TTITLE4=Music Is My Life
TTITLE5=Plastic People
TTITLE6=Bouncy Lady
TTITLE7=What Is Slick
TTITLE8=Straight Ahead
EXTD=
EXTT0=
EXTT1=
EXTT2=
EXTT3=
EXTT4=
EXTT5=
EXTT6=
EXTT7=
EXTT8=
PLAYORDER=
